<?xml version="1.0" ?><svg data-name="Layer 1" id="Layer_1" viewBox="0 0 32 32" xmlns="http://www.w3.org/2000/svg"><defs><style>.cls-1{fill:#515151;}</style></defs><title/><path class="cls-1" d="M16,9a3,3,0,1,0-3-3A3,3,0,0,0,16,9Zm0-4.46A1.46,1.46,0,1,1,14.54,6,1.46,1.46,0,0,1,16,4.54Z"/><path class="cls-1" d="M16,19a3,3,0,1,0-3-3A3,3,0,0,0,16,19Zm0-4.46A1.46,1.46,0,1,1,14.54,16,1.46,1.46,0,0,1,16,14.54Z"/><path class="cls-1" d="M16,29a3,3,0,1,0-3-3A3,3,0,0,0,16,29Zm0-4.46A1.46,1.46,0,1,1,14.54,26,1.46,1.46,0,0,1,16,24.54Z"/></svg>